<svg width="16" height="23" viewBox="0 0 16 23" fill="none" xmlns="http://www.w3.org/2000/svg">
<rect width="16" height="23" fill="#2A2A2E"/>
<g id="Join Community" clip-path="url(#clip0_201_614)">
<rect width="375" height="1320" transform="translate(-103 -34)" fill="#F8F8F8"/>
<g id="Group 31">
<g id="Header">
<g id="Logo">
<path id="Vector 124 (Stroke)" fill-rule="evenodd" clip-rule="evenodd" d="M14.2876 0.971844C15.5648 1.70921 16.0024 3.34231 15.265 4.61947L5.85055 20.9258C5.11318 22.2029 3.48008 22.6405 2.20292 21.9031C0.925756 21.1658 0.488168 19.5327 1.22554 18.2555L10.64 1.94922C11.3773 0.672062 13.0104 0.234475 14.2876 0.971844Z" fill="url(#paint0_linear_201_614)"/>
<path id="Union" fill-rule="evenodd" clip-rule="evenodd" d="M10.4791 2.28706C10.694 1.75192 11.0831 1.28218 11.6213 0.971473C12.8984 0.234104 14.5315 0.671691 15.2689 1.94885L24.6833 18.2551C25.4207 19.5323 24.9831 21.1654 23.706 21.9028C22.4288 22.6401 20.7957 22.2025 20.0583 20.9254L12.9215 8.564L12.9603 8.66371C11.5442 5.85019 9.35799 5.55036 8.44189 5.75214L10.4682 2.25893L10.4791 2.28706Z" fill="url(#paint1_linear_201_614)"/>
</g>
</g>
</g>
</g>
<defs>
<linearGradient id="paint0_linear_201_614" x1="12.2644" y1="3.70004" x2="16.5843" y2="8.89128" gradientUnits="userSpaceOnUse">
<stop stop-color="#00DFBA"/>
<stop offset="1" stop-color="#048AFE"/>
</linearGradient>
<linearGradient id="paint1_linear_201_614" x1="7.83455" y1="0.812072" x2="33.8673" y2="7.32814" gradientUnits="userSpaceOnUse">
<stop stop-color="#0056FE"/>
<stop offset="0.815625" stop-color="#D159ED"/>
</linearGradient>
<clipPath id="clip0_201_614">
<rect width="375" height="1320" fill="white" transform="translate(-103 -34)"/>
</clipPath>
</defs>
</svg>
